# xmcd
#
# Track frame offsets:
#	150
#	19076
#	45021
#	72805
#	96009
#	120116
#	148345
#	172460
#	202718
#	223451
#	245846
#	273057
#	303599
#	331907
#
# Disc length: 4751 seconds
#
# Revision: 0
# Processed by: cddbd v1.5.2PL0 Copyright (c) Steve Scherf et al.
# Submitted via: EasyCDDAExtractor 10.0.2.1
#
DISCID=c8128d0e
DTITLE=Various Artist - Old School Rave Sessions [CD2)
DYEAR=2007
DGENRE=Rave
TTITLE0=Modula Expansion - Cubes (remixed)
TTITLE1=M.D.Emm - Get Down
TTITLE2=Shut Up And Dance - The Green Man
TTITLE3=Outlander - Vamp
TTITLE4=Adé - Change The World (Shut Up And Dance Mix)
TTITLE5=4 Hero - Mr Kirk's Nightmare
TTITLE6=G Double E - Fire When Ready
TTITLE7=The House Crew - We Are Hardcore (Magic Fantasy Mix)
TTITLE8=Manix - Fell Real Good
TTITLE9=Scott and Keith - Deranged
TTITLE10=Acen - Close Your Eyes (Optikonfusion !)
TTITLE11=The House Crew - Euphoria (Nino's Dream)
TTITLE12=Acen - Trip II The Moon (Part 1)
TTITLE13=Rhythm On The Loose - Break Of Dawn
EXTD=
EXTT0=
EXTT1=
EXTT2=
EXTT3=
EXTT4=
EXTT5=
EXTT6=
EXTT7=
EXTT8=
EXTT9=
EXTT10=
EXTT11=
EXTT12=
EXTT13=
PLAYORDER=
